<svg width="25" height="25" viewBox="0 0 25 25" fill="none" xmlns="http://www.w3.org/2000/svg">
<path fill-rule="evenodd" clip-rule="evenodd" d="M4.84375 17.4994C4.91652 17.4024 5.01088 17.3236 5.11936 17.2694C5.22785 17.2151 5.34747 17.1869 5.46875 17.1869H9.375C9.5822 17.1869 9.78091 17.2692 9.92743 17.4157C10.0739 17.5622 10.1562 17.7609 10.1562 17.9681C10.1562 18.1753 10.0739 18.3741 9.92743 18.5206C9.78091 18.6671 9.5822 18.7494 9.375 18.7494H5.85938L2.34375 23.4369H22.6562L19.1406 18.7494H15.625C15.4178 18.7494 15.2191 18.6671 15.0726 18.5206C14.9261 18.3741 14.8438 18.1753 14.8438 17.9681C14.8438 17.7609 14.9261 17.5622 15.0726 17.4157C15.2191 17.2692 15.4178 17.1869 15.625 17.1869H19.5312C19.6525 17.1869 19.7722 17.2151 19.8806 17.2694C19.9891 17.3236 20.0835 17.4024 20.1562 17.4994L24.8438 23.7494C24.9308 23.8655 24.9838 24.0035 24.9968 24.148C25.0099 24.2925 24.9824 24.4378 24.9175 24.5675C24.8526 24.6973 24.7529 24.8064 24.6295 24.8827C24.5061 24.959 24.3638 24.9994 24.2188 24.9994H0.78125C0.636163 24.9994 0.493942 24.959 0.370523 24.8827C0.247104 24.8064 0.147364 24.6973 0.0824791 24.5675C0.0175941 24.4378 -0.00987251 24.2925 0.00315716 24.148C0.0161868 24.0035 0.0691979 23.8655 0.15625 23.7494L4.84375 17.4994Z" fill="#972F5E"/>
<path fill-rule="evenodd" clip-rule="evenodd" d="M6.25 6.24942C6.25011 5.04665 6.59728 3.86946 7.24984 2.8591C7.90239 1.84873 8.83263 1.04813 9.92891 0.553337C11.0252 0.0585482 12.241 -0.109404 13.4303 0.0696344C14.6197 0.248673 15.7322 0.767096 16.6342 1.5627C17.5362 2.3583 18.1896 3.39728 18.5158 4.55497C18.842 5.71267 18.8272 6.9399 18.4732 8.0894C18.1192 9.2389 17.4411 10.2619 16.5201 11.0355C15.5992 11.8092 14.4746 12.3006 13.2813 12.451V21.0932C13.2813 21.3004 13.1989 21.4991 13.0524 21.6456C12.9059 21.7921 12.7072 21.8744 12.5 21.8744C12.2928 21.8744 12.0941 21.7921 11.9476 21.6456C11.8011 21.4991 11.7188 21.3004 11.7188 21.0932V12.4525C10.2078 12.2622 8.81826 11.5267 7.81127 10.3842C6.80428 9.24166 6.2491 7.77236 6.25 6.24942Z" fill="#972F5E"/>
</svg>
