<svg xmlns="http://www.w3.org/2000/svg" viewBox="0 0 150 81.15"><defs><style>.cls-1{fill:#f7f9fa;}</style></defs><g id="Layer_2" data-name="Layer 2"><g id="Layer_1-2" data-name="Layer 1"><path class="cls-1" d="M43.86,32.84l-3.57-4,0-1.15a1,1,0,0,0-.61-.89l-3.52-1.43a1,1,0,0,0-.92.08l-1.81,1.1a0,0,0,0,1-.06,0,24.72,24.72,0,0,0,1.39-3,17.41,17.41,0,0,0,.17-2.17l.43-9.75C35.59,6.22,30.68,3,26.65,3V1.49A1.49,1.49,0,0,0,25.16,0H16.51A1.49,1.49,0,0,0,15,1.49V3c-4,0-8.94,3.22-8.7,8.69l.44,9.75A5.19,5.19,0,0,1,6,24.39C3.28,28.88,0,33,0,38.54a36.9,36.9,0,0,0,2.42,11.3A159.39,159.39,0,0,0,13.57,74.16Q15,76.8,16.49,79.41l.66,1.29a1,1,0,0,0,.63.43l.2,0a1.15,1.15,0,0,0,.41-.08c1-.44,2-.78,3-1.24.4-.18.56-.07.92.12l.52.27a1.76,1.76,0,0,0,1.22.27,1.66,1.66,0,0,0,.63-.42L26,79c.14-.11.39-.34.66-.57a2.63,2.63,0,0,0,.85-2.18l-.42-4.52a.08.08,0,0,1,0,0h.07l.65.36a1,1,0,0,0,1.31-.27l3.47-4.48a.59.59,0,0,0,.1-.17l2-4.08a1,1,0,0,0,.09-.63l-.33-1.74,1.39-2.43a1,1,0,0,0-.35-1.35,1,1,0,0,0-.4-.12L33,56.54h0l3.51-7.9.05,0,3.63-.36a1.36,1.36,0,0,0,1.29-.84A1.21,1.21,0,0,0,41.12,46a2.72,2.72,0,0,0-.57-.27c-.24-.1-1.3-.45-1.37-.7,0-.06.08-.18.1-.23.1-.27.22-.52.33-.78l1.14-2.61,2.63-6c.22-.49.42-1,.64-1.47A1,1,0,0,0,43.86,32.84ZM15,14c0,3.37-1.86,6.42-4.21,9.06H10.4a.76.76,0,0,1-.75-.75V10.11A3.08,3.08,0,0,1,12.73,7h.43A2.09,2.09,0,0,1,15,9ZM26.65,9a2.07,2.07,0,0,1,1.86-2h.42A3.07,3.07,0,0,1,32,10.11V21.87L32,22l-.61.45a.75.75,0,0,1-1.07-.19A11.07,11.07,0,0,1,26.65,14ZM38.28,44.65a.82.82,0,0,0-.05.65,1.05,1.05,0,0,0,.39.42,17.24,17.24,0,0,0,1.94,1.05h0l-.07.36a0,0,0,0,1-.05,0l-4,.44a1,1,0,0,0-.79.59l-3.52,7.91a1.14,1.14,0,0,0-.08.33,1,1,0,0,0,.88,1l1.72.18a.25.25,0,0,1,.19.36l-1.2,2.14a1,1,0,0,0-.12.67l.33,1.74-2,4.1-3.47,4.47a.05.05,0,0,1-.08,0l-.64-.36a1.06,1.06,0,0,0-.55-.12,1,1,0,0,0-.71.33,1,1,0,0,0-.27.76s.28,3.47.39,4.9a1.13,1.13,0,0,1-.42,1l-1.72,1.4a1.22,1.22,0,0,1-1.32.14l-.77-.39a1.05,1.05,0,0,0-.85,0l-2.3.85a.6.6,0,0,1-.8-.68c.05-.23.08-.41.09-.45a16.26,16.26,0,0,0,.31-1.83,10.69,10.69,0,0,0-.17-1.88,32.2,32.2,0,0,1-.29-4.6A16.8,16.8,0,0,1,18.61,67a27.72,27.72,0,0,0,.64-3.14c0-.06,0-.13,0-.19.07-1-.08-2,0-3s.15-2,.22-3c0-.32,0-.65.07-1a3.11,3.11,0,0,0-.1-1.32c-.14-.38-.3-.77-.45-1.15a.75.75,0,0,1,.32-.89l.93-.55a1,1,0,0,0,.58-.75l.52-3.15a.9.9,0,0,0,0-.4s-1.18-4.75-1.83-7.41a4.6,4.6,0,0,1,.36-2.61,2.74,2.74,0,0,0,0-1A2,2,0,0,1,20.39,36l.71-.74a1,1,0,0,0,.07-1.31l0,0a.58.58,0,0,1,.08-.81c.81-.71,1.63-1.41,2.45-2.1a2.08,2.08,0,0,0,.43-.46,1.24,1.24,0,0,0,.08-.83,13.64,13.64,0,0,0-.51-1.34c-.3-.86-.3-1.52.48-1.75,1.19-.42,2.17-.56,3.23-1A17.18,17.18,0,0,0,30.81,24h0l1.91-1.4a.23.23,0,0,1,.14,0l.62.11a.21.21,0,0,1,.19.18,1.82,1.82,0,0,1-.09,1.22c-.16.3-.34.59-.49.9s-.44.83-.64,1.25a1,1,0,0,0,.11.92,1,1,0,0,0,1.36.26l1.8-1.09,3.58,1.42,0,1.15a1,1,0,0,0,.24.64l3.58,4a6.2,6.2,0,0,1-.44,1L41.62,37,40.28,40l-1.22,2.8-.72,1.65Z"/><path class="cls-1" d="M56.62,17.44,53.79,12l3-5.52H49.3L52.15,12l-2.94,5.49L44.39,3,43,3.49l5.86,17.58L53,13.5l3.92,7.59L63,3.49,61.67,3ZM54.29,7.92,53,10.38,51.7,7.92Z"/><rect class="cls-1" x="66.74" y="2.93" width="1.44" height="17.95"/><polygon class="cls-1" points="83.21 17.13 71.55 2.83 71.55 20.88 72.99 20.88 72.99 6.9 84.66 21.23 84.66 3.03 83.21 3.03 83.21 17.13"/><polygon class="cls-1" points="99.95 4.51 99.95 3.03 88.78 3.03 88.78 20.88 99.95 20.88 99.95 19.4 90.23 19.4 90.23 12.96 99.37 12.96 99.37 11.48 90.23 11.48 90.23 4.51 99.95 4.51"/><polygon class="cls-1" points="56.66 49.73 56.66 33.34 62.88 33.34 62.88 31.85 49.13 31.85 49.13 33.34 55.21 33.34 55.21 49.73 56.66 49.73"/><path class="cls-1" d="M79.88,35.79a8.08,8.08,0,0,0-1.08-1.32,7.57,7.57,0,0,0-1.29-1.12,10,10,0,0,0-1.46-.81,8.4,8.4,0,0,0-6.76,0,8.81,8.81,0,0,0-4.62,4.75,9.12,9.12,0,0,0,0,7,9.83,9.83,0,0,0,.79,1.51,9.6,9.6,0,0,0,1.06,1.34,10.15,10.15,0,0,0,1.3,1.09,9.14,9.14,0,0,0,1.47.81,8.4,8.4,0,0,0,6.76,0,8.28,8.28,0,0,0,2.75-1.9,9.39,9.39,0,0,0,1.87-2.85,9.12,9.12,0,0,0,0-7A10.73,10.73,0,0,0,79.88,35.79ZM72.66,48.22a6.78,6.78,0,0,1-2.8-.58A7.18,7.18,0,0,1,67.56,46,7.47,7.47,0,0,1,66,43.67a7.66,7.66,0,0,1,0-5.8,7.47,7.47,0,0,1,1.56-2.36,7.18,7.18,0,0,1,2.3-1.61,7.1,7.1,0,0,1,5.62,0,7.18,7.18,0,0,1,2.3,1.61,7.58,7.58,0,0,1,1.56,2.36,7.66,7.66,0,0,1,0,5.8A7.58,7.58,0,0,1,77.78,46a7.18,7.18,0,0,1-2.3,1.61A6.84,6.84,0,0,1,72.66,48.22Z"/><path class="cls-1" d="M84.29,44.85a7.06,7.06,0,0,0,.46,1.5,5.42,5.42,0,0,0,1,1.51,6.21,6.21,0,0,0,4.86,1.9,6.07,6.07,0,0,0,4.87-1.92,4.62,4.62,0,0,0,.85-1.41,7.72,7.72,0,0,0,.38-1.37,7.12,7.12,0,0,0,.1-1.13c0-.31,0-.5,0-.58V31.81H95.33V43.45a6.38,6.38,0,0,1,0,1.21A5.47,5.47,0,0,1,95,45.78a3.2,3.2,0,0,1-.65,1.1,4.73,4.73,0,0,1-3.77,1.39,4.94,4.94,0,0,1-3.79-1.42,3.68,3.68,0,0,1-.76-1.2,7.08,7.08,0,0,1-.36-1.22,7.68,7.68,0,0,1-.1-1.37V31.88H84.13V43c0,.08,0,.28,0,.61A6.42,6.42,0,0,0,84.29,44.85Z"/><path class="cls-1" d="M107.8,42.14l.61-.16a5.09,5.09,0,0,0,1-.45,5.37,5.37,0,0,0,.81-.58,4.12,4.12,0,0,0,.76-.88,4.89,4.89,0,0,0,.55-1.24,5.49,5.49,0,0,0,.22-1.65,5.46,5.46,0,0,0-1.44-4,4.27,4.27,0,0,0-1-.73,4.35,4.35,0,0,0-1-.37,4.54,4.54,0,0,0-.77-.14l-.38,0H99.91l5.34,8.88h-5.19v9h1.45V42.25h4.63l4.51,7.54,1.24-.77ZM107,40.76l-4.44-7.4h4.71a3.5,3.5,0,0,1,1.41.36,2.82,2.82,0,0,1,.69.49,4,4,0,0,1,1,3,3.21,3.21,0,0,1-1.56,3,3.47,3.47,0,0,1-1.09.42l-.57.12Z"/><rect class="cls-1" x="115.27" y="31.78" width="1.44" height="17.95"/><path class="cls-1" d="M129.91,48.51a5.32,5.32,0,0,0,1.27-1.42,4.47,4.47,0,0,0,.6-1.68,4.06,4.06,0,0,0-1.2-3.36,9,9,0,0,0-4.5-2.34,7.79,7.79,0,0,1-3.6-1.75,2,2,0,0,1-.73-1.7,2.41,2.41,0,0,1,.45-1.08,4.32,4.32,0,0,1,1-1,5.32,5.32,0,0,1,1.35-.67,5.05,5.05,0,0,1,1.54-.24,6.31,6.31,0,0,1,3.29.84,4.46,4.46,0,0,1,.77.58l.14.15-.2.15h.39l0,0,1.13-.9-.12-.12-.35-.36a4.4,4.4,0,0,0-1-.78,7.8,7.8,0,0,0-1.68-.75,7.71,7.71,0,0,0-2.39-.33,6.35,6.35,0,0,0-2,.32,6.66,6.66,0,0,0-1.81.9A4.94,4.94,0,0,0,121,34.39a3.84,3.84,0,0,0-.68,1.7,3.2,3.2,0,0,0,0,.62,3.47,3.47,0,0,0,.15.74,3.73,3.73,0,0,0,.36.8,3.67,3.67,0,0,0,.65.81,9.69,9.69,0,0,0,4.26,2.08,8.42,8.42,0,0,1,3.58,1.71,2.66,2.66,0,0,1,1,2.38,2.58,2.58,0,0,1-.4,1.1,3.78,3.78,0,0,1-.9,1,4.7,4.7,0,0,1-2.95,1,9.14,9.14,0,0,1-2.34-.29,5.9,5.9,0,0,1-1.87-.82,3.58,3.58,0,0,1-.84-.73c-.08-.11-.35-.42-.35-.42l0,0-1.21.71.06.12a5.74,5.74,0,0,0,.37.52,4.83,4.83,0,0,0,1.13,1,8.87,8.87,0,0,0,2,1,9.38,9.38,0,0,0,3.06.44,6.38,6.38,0,0,0,2-.33A6.13,6.13,0,0,0,129.91,48.51Z"/><polygon class="cls-1" points="136.96 37.16 142.75 47.94 148.56 37.16 148.56 49.73 150 49.73 150 31.42 142.75 44.86 135.52 31.42 135.52 49.73 136.96 49.73 136.96 37.16"/><polygon class="cls-1" points="46.17 62.28 44.73 62.28 44.73 80.16 54.88 80.16 54.88 78.68 46.17 78.68 46.17 62.28"/><polygon class="cls-1" points="56.6 80.16 67.77 80.16 67.77 78.68 58.05 78.68 58.05 72.24 67.19 72.24 67.19 70.76 58.05 70.76 58.05 63.79 67.77 63.79 67.77 62.31 56.6 62.31 56.6 80.16"/><path class="cls-1" d="M82.27,72.44a3.83,3.83,0,0,0-.73-.85,6.31,6.31,0,0,0-.78-.56l-.2-.09a4.94,4.94,0,0,0,.6-.45,4.24,4.24,0,0,0,.74-.87,4.8,4.8,0,0,0,.52-1.19,6,6,0,0,0,.19-1.54,5.87,5.87,0,0,0-.18-1.54A4.76,4.76,0,0,0,82,64.21a3.71,3.71,0,0,0-1.38-1.33,3.84,3.84,0,0,0-1.37-.5l-.64-.07H70.81l5,8.11H70.92v9.74h7.56s.27,0,.72-.08a4.77,4.77,0,0,0,1.52-.53,6.86,6.86,0,0,0,.79-.56,4.11,4.11,0,0,0,.75-.84,4.73,4.73,0,0,0,.54-1.22,5.8,5.8,0,0,0,.2-1.64,5.68,5.68,0,0,0-.2-1.63A4.41,4.41,0,0,0,82.27,72.44Zm-3.7-8.65a2,2,0,0,1,.41.05l.43.12a2.07,2.07,0,0,1,.47.2,2.87,2.87,0,0,1,1.28,2.73,3,3,0,0,1-1.74,3,3.36,3.36,0,0,1-.67.27,4.5,4.5,0,0,1-.61.13l-.62.06h0l-4-6.56Zm-6.2,8.12h6.2a1.71,1.71,0,0,1,.49.07,3,3,0,0,1,.5.14,3.74,3.74,0,0,1,.56.25,3.64,3.64,0,0,1-.05,5.84,2.77,2.77,0,0,1-1.07.38,3.77,3.77,0,0,0-.55.09H72.37Z"/><polygon class="cls-1" points="84.27 79.64 85.6 80.23 91.54 65.86 97.49 80.23 98.81 79.64 91.54 62.09 84.27 79.64"/><polygon class="cls-1" points="112.98 76.41 101.31 62.1 101.31 80.16 102.76 80.16 102.76 66.18 114.42 80.51 114.42 62.31 112.98 62.31 112.98 76.41"/><path class="cls-1" d="M132.42,66.22a8.08,8.08,0,0,0-1.08-1.32,7.63,7.63,0,0,0-1.3-1.12,9.39,9.39,0,0,0-1.45-.81,8.4,8.4,0,0,0-6.76,0,8.81,8.81,0,0,0-4.62,4.75,9.12,9.12,0,0,0,0,7,9.83,9.83,0,0,0,.79,1.51,9.6,9.6,0,0,0,1.06,1.34,11,11,0,0,0,1.3,1.09,8.73,8.73,0,0,0,1.47.81,8.53,8.53,0,0,0,9.51-1.9,9.39,9.39,0,0,0,1.87-2.85,9.12,9.12,0,0,0,0-7A10.73,10.73,0,0,0,132.42,66.22ZM125.2,78.65a6.78,6.78,0,0,1-2.8-.58,7.34,7.34,0,0,1-2.3-1.61,7.51,7.51,0,0,1-1.56-2.37,7.29,7.29,0,0,1-.57-2.88,7.44,7.44,0,0,1,.57-2.91,7.58,7.58,0,0,1,1.56-2.36,7.18,7.18,0,0,1,2.3-1.61,7.1,7.1,0,0,1,5.62,0,7.18,7.18,0,0,1,2.3,1.61,7.58,7.58,0,0,1,1.56,2.36,7.44,7.44,0,0,1,.57,2.91,7.29,7.29,0,0,1-.57,2.88,7.51,7.51,0,0,1-1.56,2.37,7.34,7.34,0,0,1-2.3,1.61A6.84,6.84,0,0,1,125.2,78.65Z"/><polygon class="cls-1" points="148.38 62.31 148.38 76.41 136.72 62.1 136.72 80.16 138.16 80.16 138.16 66.18 149.83 80.51 149.83 62.31 148.38 62.31"/></g></g></svg>