<svg width="25" height="24" viewBox="0 0 25 24" fill="none" xmlns="http://www.w3.org/2000/svg">
<path d="M4.64062 0.546875C4.78732 0.375367 4.96943 0.237673 5.17443 0.143267C5.37942 0.0488618 5.60244 -1.48448e-05 5.82812 3.38201e-09H19.1719C19.3976 -1.48448e-05 19.6206 0.0488618 19.8256 0.143267C20.0306 0.237673 20.2127 0.375367 20.3594 0.546875L24.4359 5.30312C24.7999 5.72786 25 6.26877 25 6.82812V7.22656C25.0001 7.99996 24.7585 8.75406 24.3091 9.38347C23.8597 10.0129 23.2248 10.4861 22.4932 10.7371C21.7617 10.9881 20.97 11.0042 20.2288 10.7832C19.4877 10.5623 18.8341 10.1153 18.3594 9.50469C18.0127 9.9512 17.5685 10.3125 17.0607 10.5608C16.5529 10.8092 15.995 10.938 15.4297 10.9375C14.8644 10.9381 14.3064 10.8093 13.7986 10.561C13.2908 10.3126 12.8466 9.95129 12.5 9.50469C12.1534 9.95129 11.7092 10.3126 11.2014 10.561C10.6936 10.8093 10.1356 10.9381 9.57031 10.9375C9.00501 10.9381 8.44707 10.8093 7.93924 10.561C7.43142 10.3126 6.9872 9.95129 6.64062 9.50469C6.16592 10.1153 5.51232 10.5623 4.77115 10.7832C4.02999 11.0042 3.23831 10.9881 2.50676 10.7371C1.77521 10.4861 1.14035 10.0129 0.69091 9.38347C0.241472 8.75406 -8.53103e-05 7.99996 2.26008e-08 7.22656V6.82812C1.96993e-05 6.26877 0.200088 5.72786 0.564062 5.30312L4.64219 0.545312L4.64062 0.546875ZM7.42188 7.22656C7.42188 7.79636 7.64823 8.34283 8.05114 8.74574C8.45405 9.14865 9.00051 9.375 9.57031 9.375C10.1401 9.375 10.6866 9.14865 11.0895 8.74574C11.4924 8.34283 11.7188 7.79636 11.7188 7.22656C11.7188 7.01936 11.8011 6.82065 11.9476 6.67414C12.0941 6.52762 12.2928 6.44531 12.5 6.44531C12.7072 6.44531 12.9059 6.52762 13.0524 6.67414C13.1989 6.82065 13.2812 7.01936 13.2812 7.22656C13.2812 7.79636 13.5076 8.34283 13.9105 8.74574C14.3134 9.14865 14.8599 9.375 15.4297 9.375C15.9995 9.375 16.546 9.14865 16.9489 8.74574C17.3518 8.34283 17.5781 7.79636 17.5781 7.22656C17.5781 7.01936 17.6604 6.82065 17.8069 6.67414C17.9535 6.52762 18.1522 6.44531 18.3594 6.44531C18.5666 6.44531 18.7653 6.52762 18.9118 6.67414C19.0583 6.82065 19.1406 7.01936 19.1406 7.22656C19.1406 7.79636 19.367 8.34283 19.7699 8.74574C20.1728 9.14865 20.7193 9.375 21.2891 9.375C21.8589 9.375 22.4053 9.14865 22.8082 8.74574C23.2111 8.34283 23.4375 7.79636 23.4375 7.22656V6.82812C23.4375 6.64192 23.371 6.46183 23.25 6.32031L19.1719 1.5625H5.82812L1.75 6.32031C1.62898 6.46183 1.56249 6.64192 1.5625 6.82812V7.22656C1.5625 7.79636 1.78885 8.34283 2.19176 8.74574C2.59467 9.14865 3.14114 9.375 3.71094 9.375C4.28074 9.375 4.8272 9.14865 5.23011 8.74574C5.63302 8.34283 5.85938 7.79636 5.85938 7.22656C5.85938 7.01936 5.94169 6.82065 6.0882 6.67414C6.23471 6.52762 6.43342 6.44531 6.64062 6.44531C6.84783 6.44531 7.04654 6.52762 7.19305 6.67414C7.33956 6.82065 7.42188 7.01936 7.42188 7.22656ZM2.34375 11.7188C2.55095 11.7188 2.74966 11.8011 2.89618 11.9476C3.04269 12.0941 3.125 12.2928 3.125 12.5V21.875H4.6875V14.0625C4.6875 13.6481 4.85212 13.2507 5.14515 12.9576C5.43817 12.6646 5.8356 12.5 6.25 12.5H10.9375C11.3519 12.5 11.7493 12.6646 12.0424 12.9576C12.3354 13.2507 12.5 13.6481 12.5 14.0625V21.875H21.875V12.5C21.875 12.2928 21.9573 12.0941 22.1038 11.9476C22.2503 11.8011 22.449 11.7188 22.6562 11.7188C22.8635 11.7188 23.0622 11.8011 23.2087 11.9476C23.3552 12.0941 23.4375 12.2928 23.4375 12.5V21.875H24.2188C24.426 21.875 24.6247 21.9573 24.7712 22.1038C24.9177 22.2503 25 22.449 25 22.6562C25 22.8635 24.9177 23.0622 24.7712 23.2087C24.6247 23.3552 24.426 23.4375 24.2188 23.4375H0.78125C0.57405 23.4375 0.375336 23.3552 0.228823 23.2087C0.0823101 23.0622 2.26008e-08 22.8635 2.26008e-08 22.6562C2.26008e-08 22.449 0.0823101 22.2503 0.228823 22.1038C0.375336 21.9573 0.57405 21.875 0.78125 21.875H1.5625V12.5C1.5625 12.2928 1.64481 12.0941 1.79132 11.9476C1.93784 11.8011 2.13655 11.7188 2.34375 11.7188ZM6.25 21.875H10.9375V14.0625H6.25V21.875ZM14.0625 14.0625C14.0625 13.6481 14.2271 13.2507 14.5201 12.9576C14.8132 12.6646 15.2106 12.5 15.625 12.5H18.75C19.1644 12.5 19.5618 12.6646 19.8549 12.9576C20.1479 13.2507 20.3125 13.6481 20.3125 14.0625V18.75C20.3125 19.1644 20.1479 19.5618 19.8549 19.8549C19.5618 20.1479 19.1644 20.3125 18.75 20.3125H15.625C15.2106 20.3125 14.8132 20.1479 14.5201 19.8549C14.2271 19.5618 14.0625 19.1644 14.0625 18.75V14.0625ZM18.75 14.0625H15.625V18.75H18.75V14.0625Z" fill="#972F5E"/>
</svg>
